<?xml version="1.0" encoding="UTF-8" standalone="no"?>
<svg
   xmlns:dc="http://purl.org/dc/elements/1.1/"
   xmlns:cc="http://creativecommons.org/ns#"
   xmlns:rdf="http://www.w3.org/1999/02/22-rdf-syntax-ns#"
   xmlns:svg="http://www.w3.org/2000/svg"
   xmlns="http://www.w3.org/2000/svg"
   xmlns:sodipodi="http://sodipodi.sourceforge.net/DTD/sodipodi-0.dtd"
   xmlns:inkscape="http://www.inkscape.org/namespaces/inkscape"
   id="svg2"
   height="201"
   sodipodi:version="0.32"
   width="201"
   version="1.0"
   sodipodi:docname="benchmarks.svg"
   inkscape:version="0.91 r13725"
   inkscape:export-filename="/home/crep/git/matrix-viewer/icons/matrix-viewer/22x22/benchmarks.png"
   inkscape:export-xdpi="9.8999996"
   inkscape:export-ydpi="9.8999996">
  <defs
     id="defs17" />
  <sodipodi:namedview
     id="base"
     bordercolor="#666666"
     borderopacity="1.0"
     pagecolor="#ffffff"
     showgrid="false"
     inkscape:zoom="0.944"
     inkscape:cx="-233.06404"
     inkscape:cy="30.972518"
     inkscape:window-width="1625"
     inkscape:window-height="1026"
     inkscape:window-x="55"
     inkscape:window-y="24"
     inkscape:window-maximized="1"
     inkscape:current-layer="svg2"
     fit-margin-top="0"
     fit-margin-left="0"
     fit-margin-right="0"
     fit-margin-bottom="0" />
  <metadata
     id="metadata15">
    <rdf:RDF>
      <cc:Work>
        <dc:format>image/svg+xml</dc:format>
        <dc:type
           rdf:resource="http://purl.org/dc/dcmitype/StillImage" />
        <cc:license
           rdf:resource="http://creativecommons.org/publicdomain/zero/1.0/" />
        <dc:publisher>
          <cc:Agent
             rdf:about="http://openclipart.org/">
            <dc:title>Openclipart</dc:title>
          </cc:Agent>
        </dc:publisher>
        <dc:title>chrono</dc:title>
        <dc:date>2006-09-18T07:01:59</dc:date>
        <dc:description>A chronometer : )</dc:description>
        <dc:source>http://openclipart.org/detail/162/chrono-by-technoargia</dc:source>
        <dc:creator>
          <cc:Agent>
            <dc:title>technoargia</dc:title>
          </cc:Agent>
        </dc:creator>
        <dc:subject>
          <rdf:Bag>
            <rdf:li>chronometer</rdf:li>
            <rdf:li>clip art</rdf:li>
            <rdf:li>clipart</rdf:li>
            <rdf:li>clock</rdf:li>
            <rdf:li>contour</rdf:li>
            <rdf:li>meter</rdf:li>
            <rdf:li>pocket watch</rdf:li>
            <rdf:li>time</rdf:li>
          </rdf:Bag>
        </dc:subject>
      </cc:Work>
      <cc:License
         rdf:about="http://creativecommons.org/publicdomain/zero/1.0/">
        <cc:permits
           rdf:resource="http://creativecommons.org/ns#Reproduction" />
        <cc:permits
           rdf:resource="http://creativecommons.org/ns#Distribution" />
        <cc:permits
           rdf:resource="http://creativecommons.org/ns#DerivativeWorks" />
      </cc:License>
    </rdf:RDF>
  </metadata>
  <g
     id="g3146"
     transform="matrix(0.44451328,0,0,0.44451328,19.55206,-33.069298)"
     style="stroke:#4e9a06">
    <path
       id="path13754"
       d="m 216.83,399.08 c -4.63,27.75 -30.91,46.52 -58.66,41.89 -27.76,-4.64 -46.52,-30.92 -41.89,-58.67 4.63,-27.76 30.92,-46.52 58.67,-41.89 27.75,4.63 46.52,30.92 41.88,58.67 z m -42.84,-58.83 -2.46,14.73 m 44.24,44.58 -14.73,-2.46 m -42.45,43.28 2.46,-14.73 m -44.13,-41.27 14.73,2.46 m 15.99,-43.48 5.96,13.69 m 59.24,14.25 -13.69,5.96 m -12.03,59.42 -5.96,-13.7 m -59.49,-10.57 13.7,-5.96 m -8.49,-45.47 12.46,8.24 m 57.54,-19.19 -8.23,12.46 m 16.5,59.36 -12.45,-8.24 m -55.97,17.56 8.23,-12.46"
       inkscape:connector-curvature="0"
       style="fill:#d3d7cf;fill-opacity:0.61589996;stroke:#4e9a06;stroke-width:3.50099993;stroke-linecap:round;stroke-linejoin:round;stroke-opacity:0.61456;stroke-dashoffset:2.4507" />
    <path
       id="path1382"
       d="M 331.14,354.1 C 302.28,434.34 212.08,475.44 129.81,445.84 47.538,416.24 4.2,327.1 33.063,246.86 c 28.867,-80.24 119.07,-121.33 201.34,-91.73 82.27,29.59 125.61,118.74 96.74,198.97 m -170.36,73.64 -4.38,24.29 M 52.753,276.5 28.015,272.03 m 309.46,55.84 -24.74,-4.47 m -181.19,-169.05 8.35,23.22 m 87.73,244.03 8.34,23.22 M 58.445,344.63 34.789,353.14 m 293.66,-104.81 -23.66,8.51 m -240.7,-58.4 18.839,15.94 m 200.72,170.61 18.84,15.94 m -203.9,-1.32 -16.234,19.2 m 198.97,-235.55 -16.23,19.19 m -59.86,-53.95 -4.38,24.28"
       inkscape:connector-curvature="0"
       style="fill:#eeeeec;stroke:#4e9a06;stroke-width:14;stroke-linecap:round;stroke-linejoin:round;stroke-miterlimit:4;stroke-dasharray:none" />
    <path
       id="path18352"
       d="m 196.42508,295.48715 c 5.07478,7.05978 3.476,16.90395 -3.58378,21.97873 -7.05079,5.08376 -16.89496,3.48498 -21.97872,-3.5748 -5.07478,-7.0508 -3.476,-16.89497 3.5748,-21.97873 7.05977,-5.08376 16.90394,-3.476 21.9877,3.5748 z m -21.9877,-3.5748 -68.1637,-94.66032"
       inkscape:connector-curvature="0"
       style="fill:#eeeeec;stroke:#4e9a06;stroke-width:8.98190689;stroke-linecap:round;stroke-linejoin:round;stroke-miterlimit:4;stroke-opacity:0.99730003;stroke-dasharray:none;stroke-dashoffset:2.4507" />
    <g
       transform="matrix(0.88449025,0,0,0.88449025,9.9727779,36.767921)"
       id="g3782"
       style="stroke:#4e9a06">
      <path
         style="fill:#eeeeec;fill-opacity:0.61589996;stroke:#4e9a06;stroke-width:5.32200003;stroke-linecap:round;stroke-linejoin:round;stroke-opacity:0.98382999;stroke-dashoffset:2.4507"
         inkscape:connector-curvature="0"
         d="m 174.67,394.26 c 0,4.66 -3.78,8.44 -8.44,8.44 -4.66,0 -8.44,-3.78 -8.44,-8.44 0,-4.66 3.78,-8.44 8.44,-8.44 4.66,0 8.44,3.78 8.44,8.44 z m -9.09,-8.44 -1.3,-35.72"
         id="path17471" />
      <path
         style="fill:none;stroke:#4e9a06;stroke-width:3.50099993;stroke-linecap:round;stroke-linejoin:round;stroke-opacity:0.61456;stroke-dashoffset:2.4507"
         inkscape:connector-curvature="0"
         d="m 216.85215,393.18887 c -4.63,27.75 -30.91,46.51999 -58.66,41.88999 -27.76,-4.63999 -46.52,-30.91999 -41.89,-58.66999 4.63,-27.76 30.92,-46.52 58.67,-41.89 27.75,4.63 46.52,30.92 41.88,58.67 z m -42.84,-58.83 -2.46,14.73 m 44.24,44.58 -14.73,-2.46 m -42.45,43.27999 2.46,-14.72999 m -44.13,-41.27 14.73,2.46 m 15.99,-43.48 5.96,13.69 m 59.24,14.25 -13.69,5.96 m -12.03,59.42 -5.96,-13.7 m -59.49,-10.57 13.7,-5.96 m -8.49,-45.47 12.46,8.24 m 57.54,-19.19 -8.23,12.46 m 16.5,59.36 -12.45,-8.24 m -55.97,17.56 8.23,-12.46"
         id="path13754-8" />
    </g>
  </g>
  <rect
     style="fill:none;stroke:none;stroke-width:1"
     id="rect3012"
     width="200"
     height="200"
     x="0.5"
     y="0.5"
     rx="10"
     ry="10" />
</svg>
