<?xml version="1.0" encoding="UTF-8" standalone="no"?>
<svg
   xmlns:dc="http://purl.org/dc/elements/1.1/"
   xmlns:cc="http://creativecommons.org/ns#"
   xmlns:rdf="http://www.w3.org/1999/02/22-rdf-syntax-ns#"
   xmlns:svg="http://www.w3.org/2000/svg"
   xmlns="http://www.w3.org/2000/svg"
   xmlns:xlink="http://www.w3.org/1999/xlink"
   xmlns:sodipodi="http://sodipodi.sourceforge.net/DTD/sodipodi-0.dtd"
   xmlns:inkscape="http://www.inkscape.org/namespaces/inkscape"
   id="Layer_1"
   space="preserve"
   sodipodi:version="0.32"
   viewBox="0 0 201 201"
   version="1.1"
   sodipodi:docname="tools.svg"
   inkscape:version="0.91 r13725"
   width="100%"
   height="100%"
   inkscape:export-filename="/home/crep/git/matrix-viewer/icons/matrix-viewer/48x48/operations.png"
   inkscape:export-xdpi="21.6"
   inkscape:export-ydpi="21.6">
  <defs
     id="defs90">
    <linearGradient
       id="XMLID_7_"
       y2="63.737"
       gradientUnits="userSpaceOnUse"
       y1="63.737"
       x2="133.89"
       x1="7.0521998">
      <stop
         id="stop6"
         stop-color="#EAEAEA"
         offset="0" />
      <stop
         id="stop8"
         stop-color="#E1E1E1"
         offset=".1981" />
      <stop
         id="stop10"
         stop-color="#C9C8C8"
         offset=".5226" />
      <stop
         id="stop12"
         stop-color="#A1A0A0"
         offset=".9311" />
      <stop
         id="stop14"
         stop-color="#9A9999"
         offset="1" />
    </linearGradient>
    <linearGradient
       id="XMLID_8_"
       y2="455.82999"
       gradientUnits="userSpaceOnUse"
       y1="455.82999"
       gradientTransform="matrix(-211.4,211.92,211.92,211.4,-146200,-46500)"
       x2="-233.92"
       x1="-235.55">
      <stop
         id="stop19"
         stop-color="#fff"
         offset="0" />
      <stop
         id="stop21"
         offset="1" />
    </linearGradient>
    <linearGradient
       id="XMLID_10_"
       y2="455.60001"
       gradientUnits="userSpaceOnUse"
       y1="455.60001"
       gradientTransform="matrix(-211.4,211.92,211.92,211.4,-146200,-46500)"
       x2="-233.78"
       x1="-235.61">
      <stop
         id="stop40"
         stop-color="#C6C6C6"
         offset="0" />
      <stop
         id="stop42"
         offset="1" />
    </linearGradient>
    <linearGradient
       id="XMLID_11_"
       y2="455.82001"
       gradientUnits="userSpaceOnUse"
       y1="455.82001"
       gradientTransform="matrix(-211.4,211.92,211.92,211.4,-146200,-46500)"
       x2="-233.92999"
       x1="-235.53999">
      <stop
         id="stop81"
         stop-color="#C6C6C6"
         offset="0" />
      <stop
         id="stop83"
         offset="1" />
    </linearGradient>
    <linearGradient
       inkscape:collect="always"
       xlink:href="#XMLID_7_"
       id="linearGradient3054"
       gradientUnits="userSpaceOnUse"
       x1="7.0521998"
       y1="63.737"
       x2="133.89"
       y2="63.737"
       gradientTransform="matrix(1.2480329,0,0,1.2480329,16.543185,20.847963)" />
    <linearGradient
       inkscape:collect="always"
       xlink:href="#XMLID_10_"
       id="linearGradient3056"
       gradientUnits="userSpaceOnUse"
       gradientTransform="matrix(-263.83416,264.48313,264.48313,263.83416,-182445.87,-58012.682)"
       x1="-235.61"
       y1="455.60001"
       x2="-233.78"
       y2="455.60001" />
    <linearGradient
       inkscape:collect="always"
       xlink:href="#XMLID_11_"
       id="linearGradient3058"
       gradientUnits="userSpaceOnUse"
       gradientTransform="matrix(-263.83416,264.48313,264.48313,263.83416,-182445.87,-58012.682)"
       x1="-235.53999"
       y1="455.82001"
       x2="-233.92999"
       y2="455.82001" />
  </defs>
  <sodipodi:namedview
     id="base"
     bordercolor="#666666"
     borderopacity="1.0"
     pagecolor="#ffffff"
     showgrid="false"
     fit-margin-top="0"
     fit-margin-left="0"
     fit-margin-right="0"
     fit-margin-bottom="0"
     inkscape:zoom="1.3073642"
     inkscape:cx="-106.4904"
     inkscape:cy="54.182135"
     inkscape:window-width="1625"
     inkscape:window-height="1026"
     inkscape:window-x="55"
     inkscape:window-y="24"
     inkscape:window-maximized="1"
     inkscape:current-layer="Layer_1" />
  <path
     inkscape:connector-curvature="0"
     style="fill:url(#linearGradient3054)"
     id="path16"
     d="M 152.67861,122.22817 C 140.88221,110.44549 126.09676,102.49802 112.81769,92.611103 105.49174,87.157199 93.711555,79.77758 92.010486,69.958058 90.952155,63.847689 93.996107,57.772264 93.116244,51.313694 92.220156,44.710352 89.344688,38.446475 84.941628,33.446855 75.445346,22.663851 59.75258,18.962185 46.441061,24.431065 L 60.677372,38.667377 C 67.41051,45.401762 66.4333,50.215425 59.866151,56.763854 53.755782,62.855502 48.97956,62.509797 43.087597,56.624074 38.174091,51.716809 33.26433,46.810791 28.350824,41.903526 c -5.825817,12.794833 -3.002767,28.200551 6.921591,38.121165 4.687611,4.685115 10.724346,7.952466 17.222854,9.282869 3.117586,0.637745 6.328775,0.836182 9.50377,0.587823 3.380921,-0.265831 8.119702,-2.81057 11.206088,-1.964404 10.775516,2.94411 18.051548,13.325251 24.129468,22.080201 9.559935,13.76206 16.113355,29.02175 28.254215,40.89429 9.99425,9.7721 21.02436,19.95605 33.82918,25.95909 9.74714,4.5678 17.34766,1.09826 22.81404,-8.39927 3.13257,-5.42894 0.5117,-10.50843 -2.62087,-15.38824 -7.33843,-11.43198 -17.38509,-21.29519 -26.93255,-30.84888 m -3.9313,27.66639 c -6.04048,0 -6.028,-9.37771 0,-9.37771 6.04048,0.0424 6.06544,9.37771 0,9.37771" />
  <path
     inkscape:connector-curvature="0"
     id="path23"
     d="m 107.27268,86.82647 c -0.49422,0.492973 -0.98969,0.988442 -1.48266,1.482663 4.16094,3.550654 6.79429,3.272343 11.62293,6.678224 -0.3507,0.369418 -0.70264,0.741332 -1.05459,1.109502 18.29866,11.969881 34.31092,24.486401 48.95035,40.800691 5.96559,6.54344 12.72993,13.64599 16.28683,21.89549 2.64583,6.14032 -0.47426,10.24635 -4.85485,14.72679 -10.55836,10.783 -24.56129,-1.28548 -33.83417,-8.61143 -17.69461,-13.97797 -32.78333,-31.22453 -43.090836,-51.389 -0.424331,0.44555 -0.84991,0.89484 -1.274241,1.34039 -2.513539,-5.20056 -2.834283,-9.07196 -6.202724,-13.1031 -2.632101,2.62336 3.203701,7.88008 4.873569,11.18612 2.869232,5.68354 6.291332,10.98269 9.795812,16.29307 8.23327,12.47159 17.7308,22.99251 29.08166,32.71468 7.75278,6.63954 16.33925,13.60356 26.03646,17.18542 8.32438,3.07016 14.30246,-1.19812 19.36947,-7.70037 9.49753,-12.19328 -6.2152,-26.59059 -13.96548,-35.17456 -8.13718,-9.00705 -16.57388,-17.94796 -26.17125,-25.41619 -10.95898,-8.52032 -23.62652,-14.930214 -34.08628,-24.01839 M 59.223414,20.847963 c -1.394053,0 -15.974821,2.021813 -13.512452,4.313202 0.08986,1.003418 3.487004,3.490748 4.164686,4.16843 4.227087,4.234575 9.73216,8.390525 13.234141,13.247869 5.485104,5.486352 -3.54691,15.55049 -9.044495,17.769492 -6.305062,2.543491 -12.957077,-7.166205 -16.693688,-10.906559 -0.803733,-0.803733 -8.889738,-10.250094 -9.966791,-7.97493 -5.200553,11.438221 -3.791524,25.07298 3.633024,35.193279 6.569645,8.957132 17.209126,14.378587 28.321611,14.378587 5.370285,0 10.648216,-3.035216 15.666557,-1.436486 4.902273,1.560042 8.326875,5.065766 11.685332,8.828585 C 91.10067,94.038852 76.055634,87.636444 72.18798,86.57936 70.037619,86.027729 64.91694,88.581205 62.459563,88.815835 57.604715,89.275111 52.658761,88.648598 48.07848,86.97873 30.714599,80.652452 22.004577,60.932284 28.806356,43.813016 c 4.954691,4.958435 9.911878,9.914374 14.869064,14.87156 6.745618,6.74437 12.305605,3.432091 18.066525,-2.330077 2.914156,-2.914157 5.981821,-5.763416 5.310379,-10.341201 -1.955667,-2.774377 -4.134733,-5.101958 -6.524716,-7.491941 -4.484182,-4.481686 -8.968364,-8.965868 -13.452546,-13.450051 1.194367,0.458028 2.302621,1.073309 3.323511,1.848337 -0.665201,-0.665201 -1.327907,-1.330403 -1.994356,-1.994357 16.884637,-6.006782 35.846001,2.877964 41.986323,19.746377 3.061424,8.411742 0.14602,14.645666 0.178468,22.873947 0.616529,4.140973 7.085083,19.951054 11.909982,15.124911 -4.610237,-4.053611 -8.620167,-7.49319 -9.598625,-13.744587 -0.536654,-3.43833 1.161919,-6.688208 1.463943,-10.175212 0.401867,-4.673883 -0.189701,-9.438873 -1.67486,-13.884366 C 87.914442,30.612572 74.214785,20.847963 59.223414,20.847963"
     style="fill:#888a85;stroke:#babdb6;stroke-width:1.24803293" />
  <path
     style="fill:#e5e5e5"
     inkscape:connector-curvature="0"
     id="path25"
     d="m 31.371064,47.361174 c -0.278311,-1.099517 -0.975962,-1.736014 -2.092951,-1.90949 -3.001519,8.470399 -1.800912,18.142654 2.856747,25.785607 -3.734114,-7.538118 -4.074827,-16.17201 -0.763796,-23.876117 m 60.217587,7.936241 c 0.01,-9.839491 -4.827391,-19.193498 -12.722447,-25.030548 -3.631776,-2.684518 -7.827662,-4.585273 -12.238211,-5.550002 -2.026805,-0.4443 -16.758585,-1.760974 -16.729881,1.052092 0.04493,4.318194 10.201421,2.503554 12.102175,2.648326 6.066688,0.458028 11.938683,2.723207 16.721145,6.482282 10.905312,8.573986 14.558304,23.861141 8.370557,36.356447 2.914157,-4.798687 4.515383,-10.338705 4.496662,-15.958597" />
  <path
     style="fill:#e5e5e5"
     inkscape:connector-curvature="0"
     id="path27"
     d="m 64.672326,60.318251 c 1.895762,-1.895761 4.889793,-4.733788 5.367789,-7.559335 0.804981,-4.732541 -6.291334,1.551305 -6.640783,1.978132 -2.167833,2.65831 -4.240816,5.345325 -7.041401,7.382115 -0.631505,0.460524 -3.883879,1.717293 -4.129741,2.523522 -0.30452,1.003419 3.174995,0.916057 3.442074,0.884856 3.505725,-0.420587 6.590862,-2.795594 9.002062,-5.20929" />
  <path
     inkscape:connector-curvature="0"
     style="fill:url(#linearGradient3056)"
     id="path44"
     d="m 47.075062,25.070058 c 6.734385,6.73189 14.47843,13.146779 19.977262,20.941992 -0.600303,-4.039882 -4.487926,-6.92783 -7.194909,-9.636062 -3.685441,-3.684193 -7.74654,-9.496282 -12.782353,-11.30593" />
  <path
     style="fill:#b2b2b2"
     inkscape:connector-curvature="0"
     id="path46"
     d="m 69.454788,51.540836 c 0.123555,0.653969 0.243366,1.305443 0.365673,1.959412 0.445548,-0.898584 0.321993,-1.550057 -0.365673,-1.959412" />
  <path
     style="fill:#e5e5e5"
     inkscape:connector-curvature="0"
     id="path48"
     d="M 49.311537,65.568726 C 48.034799,66.84796 27.538355,46.415165 28.846293,45.102234 29.298081,44.649198 49.75334,65.12817 49.311537,65.568726" />
  <path
     style="fill:#e5e5e5"
     inkscape:connector-curvature="0"
     id="path50"
     d="m 181.23361,164.24694 c 4.51788,-4.54284 -43.56634,-47.19186 -48.57719,-51.28292 -12.14336,-9.91687 -26.17749,-17.296485 -37.137713,-28.722226 -1.993109,-2.077975 -4.133485,-4.384339 -5.280427,-7.068858 -0.02871,-0.07363 -0.554127,-2.266428 -0.275816,-2.121656 0.21591,0.112323 -0.470508,0.864887 -0.521677,0.916056 -0.318249,0.323241 10.925283,10.33496 11.585493,10.839166 13.49498,10.286287 28.70101,17.759508 41.85528,28.639858 11.07005,9.16431 21.54104,19.39069 30.25231,30.85387 1.90949,2.52103 11.79391,14.25254 8.09974,17.94671" />
  <path
     style="fill:#9a9a9a"
     inkscape:connector-curvature="0"
     id="path52"
     d="m 140.81481,131.11417 c -1.96315,0 -3.83271,0.32199 -5.6748,0.99593 5.85078,0 10.18769,-0.54415 15.27966,3.37343 3.51946,2.71073 5.9032,6.501 8.04982,10.32997 0.53665,0.98594 3.36969,8.36182 4.76748,8.36182 3.25737,0 -4.19339,-12.71247 -4.73004,-13.35645 -4.45548,-5.3316 -10.471,-9.7047 -17.69212,-9.7047" />
  <path
     style="fill:#e5e5e5"
     inkscape:connector-curvature="0"
     id="path54"
     d="m 146.83782,155.21119 c 2.78311,1.92197 6.0904,2.75815 9.42265,2.90791 0.73634,0.025 6.25264,-0.72386 6.62705,0.16225 2.44615,5.82831 -14.67686,1.74724 -15.9249,1.02338 -7.68414,-4.38059 -13.79575,-12.90466 -13.8594,-21.9529 -0.0374,-4.8798 1.70481,-7.93873 2.33382,-1.19187 0.74882,8.06479 4.74876,14.4335 11.40078,19.05123" />
  <path
     inkscape:connector-curvature="0"
     id="path56"
     d="m 86.565319,102.77508 c 11.000162,10.96272 -15.91242,34.08628 -21.922946,40.19415 -9.282869,9.43388 -19.112376,19.87992 -30.771499,26.43209 -3.843942,2.17158 -8.816105,4.16843 -12.782353,1.19811 -12.6076285,-9.43513 10.671929,-30.83016 16.436593,-36.90932 10.060393,-10.61203 20.852134,-22.0153 33.574581,-29.49601 4.376852,-2.5747 11.123717,-5.778396 15.465624,-1.41902"
     style="fill:#73d216" />
  <path
     inkscape:connector-curvature="0"
     id="path58"
     d="m 86.565319,102.77508 c -0.69141,-0.49172 -1.384069,-0.9822 -2.075479,-1.47392 7.760269,11.43572 -17.081826,32.58988 -23.162242,38.76015 -9.008302,9.14684 -18.410982,18.93141 -29.457321,25.65831 -3.649248,2.2215 -8.764935,4.91725 -13.000759,2.62087 9.911878,14.30246 35.379237,-15.06376 41.160125,-20.75479 6.302567,-6.21146 38.446902,-32.94182 26.535676,-44.81062"
     style="fill:#4e9a06" />
  <path
     inkscape:connector-curvature="0"
     id="path60"
     d="m 79.02096,106.0287 c 1.485159,1.48392 -24.264256,24.05209 -25.780616,25.55348 -8.269466,8.19209 -16.369199,16.56514 -24.105755,25.26393 -0.67269,0.74882 -4.158446,5.87823 -5.631125,5.15437 -6.592109,-3.19496 15.22725,-24.4864 16.641271,-25.95908 2.825547,-2.94536 32.381462,-36.513699 38.876225,-30.0127"
     style="fill:#eeeeec" />
  <path
     inkscape:connector-curvature="0"
     id="path62"
     d="m 43.509432,126.45027 c -5.226762,5.22676 -41.6281375,39.40664 -20.351673,46.08361 8.016116,2.52103 17.985402,-6.8517 23.48798,-11.53182 10.646968,-9.04824 20.689889,-19.09241 29.866675,-29.62955 5.39275,-6.19024 19.228443,-20.48521 10.602039,-29.14282 C 75.578885,90.695372 49.914337,120.04661 43.509432,126.45027 M 20.37839,168.96451 c -6.618318,-6.55218 3.40089,-18.15888 7.43578,-23.17597 9.740897,-12.09469 21.090508,-23.42184 33.064136,-33.30251 5.08823,-4.19714 21.380051,-18.198819 26.840195,-6.91785 2.051766,4.23957 -1.039611,9.44636 -3.248629,12.93961 -7.783982,12.31434 -18.928915,22.85397 -29.402407,32.82201 -5.712247,5.44143 -25.031796,27.33192 -34.689075,17.63471"
     style="fill:#4e9a06;stroke:#73d216;stroke-width:1.24803293" />
  <path
     inkscape:connector-curvature="0"
     id="path64"
     d="m 157.19649,32.348586 c 6.7893,6.790547 -2.17157,11.362092 -6.9765,16.175755 -4.51788,4.530359 -10.32997,5.674805 -15.01883,10.368657 -5.27793,5.281675 -10.55836,10.562102 -15.83629,15.84253 -8.56525,8.565249 -17.13424,17.131747 -25.701988,25.695752 -1.844593,1.84459 -3.686689,3.68669 -5.530034,5.52878 -0.841174,0.84242 -1.919474,0.9248 -3.025232,0.50795 -4.247055,-1.60122 -1.241792,-5.19431 0.624017,-7.057624 11.958651,-11.952411 23.918547,-23.904822 35.874707,-35.860977 2.92414,-2.922893 5.84703,-5.845786 8.76868,-8.767431 1.80341,-1.80216 4.46047,-3.690434 5.50881,-6.069184 1.01341,-2.300125 0.80249,-5.572467 2.67454,-7.447013 5.37153,-5.369037 11.00016,-16.405392 18.63812,-8.917195"
     style="fill:#c6c6c6;stroke:#888a85;stroke-width:1.24803293" />
  <path
     style="fill:#ffffff"
     inkscape:connector-curvature="0"
     id="path66"
     d="M 134.38994,54.059367 C 135.0177,54.687127 85.856436,103.90455 85.201219,103.24934 84.904187,102.9523 133.22677,53.008523 134.38994,54.059367" />
  <path
     style="fill:#9a9a9a"
     inkscape:connector-curvature="0"
     id="path68"
     d="M 139.76023,54.059367 C 131.76408,56.104892 87.140662,107.41652 86.220862,106.50421 93.080051,104.15416 138.65197,52.951113 139.76023,54.059367" />
  <path
     style="fill:#e5e5e5"
     inkscape:connector-curvature="0"
     id="path70"
     d="m 157.08417,37.189706 c 0,5.291659 -16.74361,16.422865 -16.74361,7.243583 0,-0.741332 6.93407,-1.805904 8.65636,-2.909165 0.62401,-0.400619 8.08725,-5.254218 8.08725,-4.334418" />
  <path
     style="fill:#9a9a9a"
     inkscape:connector-curvature="0"
     id="path72"
     d="m 152.09204,29.720229 c -1.92197,0 -12.83727,11.895001 -12.69749,12.037277 1.26675,1.26301 11.37457,-12.037277 12.69749,-12.037277" />
  <path
     style="fill:#dddddd"
     inkscape:connector-curvature="0"
     id="path74"
     d="m 151.40562,30.769825 c 0.38689,-0.394379 4.64268,5.934396 5.50383,5.934396 0.14976,-2.629605 -2.68328,-5.92566 -5.50383,-5.934396" />
  <path
     style="fill:#c4c4c4"
     inkscape:connector-curvature="0"
     id="path76"
     d="m 151.40562,30.769825 c -0.32449,0 -0.68642,0.379402 0,0" />
  <path
     style="fill:#555753"
     inkscape:connector-curvature="0"
     id="path78"
     d="m 107.74069,94.982365 c -2.52352,2.524771 -5.04829,5.050785 -7.57181,7.576805 -4.883555,4.8873 -3.677955,4.4717 -0.355692,10.95898 4.517882,-4.75875 9.035762,-9.515 13.553642,-14.275 -1.89577,-1.394053 -3.77406,-2.81057 -5.62614,-4.260785 m 2.84677,-2.850507 c -0.25335,0.252103 -0.50795,0.50795 -0.76006,0.760052 2.0006,1.270498 4.02616,2.496066 6.07418,3.686689 0.15101,-0.159748 0.30327,-0.321992 0.45553,-0.48174 -1.95317,-1.277986 -3.88762,-2.584676 -5.76965,-3.965001" />
  <path
     inkscape:connector-curvature="0"
     style="fill:url(#linearGradient3058)"
     id="path85"
     d="m 96.057857,106.67519 c -1.81464,2.08671 1.325411,5.79212 2.482338,8.1846 2.763145,-1.73227 -1.234305,-6.27761 -2.482338,-8.1846 M 111.7344,90.98242 c -0.3844,0.383146 -0.7638,0.766292 -1.14694,1.149438 2.14786,1.577514 4.67138,4.691356 6.82424,2.855499 -1.89202,-1.335395 -3.78528,-2.67079 -5.6773,-4.004937" />
  <path
     style="fill:#b2b2b2"
     inkscape:connector-curvature="0"
     id="path87"
     d="m 109.8274,92.89191 c -0.79,0.451788 -1.43898,1.441478 -2.08671,2.091703 2.83304,2.215259 5.75718,6.257637 8.16089,1.594986 -2.04927,-1.190623 -4.07483,-2.417439 -6.07418,-3.686689" />
  <metadata
     id="metadata44">
    <rdf:RDF>
      <cc:Work>
        <dc:format>image/svg+xml</dc:format>
        <dc:type
           rdf:resource="http://purl.org/dc/dcmitype/StillImage" />
        <cc:license
           rdf:resource="http://creativecommons.org/publicdomain/zero/1.0/" />
        <dc:publisher>
          <cc:Agent
             rdf:about="http://openclipart.org/">
            <dc:title>Openclipart</dc:title>
          </cc:Agent>
        </dc:publisher>
        <dc:title>Architetto -- utensili chiave e cacci</dc:title>
        <dc:date>2010-03-28T12:25:31</dc:date>
        <dc:description>Drawing by Francesco 'Architetto' Rollandin. From OCAL 0.18 release.</dc:description>
        <dc:source>http://openclipart.org/detail/34951/architetto----utensili-chiave-e-cacci-by-anonymous</dc:source>
        <dc:creator>
          <cc:Agent>
            <dc:title>Anonymous</dc:title>
          </cc:Agent>
        </dc:creator>
        <dc:subject>
          <rdf:Bag>
            <rdf:li>clip art</rdf:li>
            <rdf:li>clipart</rdf:li>
            <rdf:li>icon</rdf:li>
            <rdf:li>screwdiver</rdf:li>
            <rdf:li>settings</rdf:li>
            <rdf:li>spanner</rdf:li>
            <rdf:li>tool</rdf:li>
            <rdf:li>wrench</rdf:li>
          </rdf:Bag>
        </dc:subject>
      </cc:Work>
      <cc:License
         rdf:about="http://creativecommons.org/licenses/publicdomain/">
        <cc:permits
           rdf:resource="http://creativecommons.org/ns#Reproduction" />
        <cc:permits
           rdf:resource="http://creativecommons.org/ns#Distribution" />
        <cc:permits
           rdf:resource="http://creativecommons.org/ns#DerivativeWorks" />
      </cc:License>
    </rdf:RDF>
  </metadata>
  <rect
     style="fill:none;stroke:none;stroke-width:1"
     id="rect3012"
     width="200"
     height="200"
     x="0.49999535"
     y="0.5"
     rx="10"
     ry="10" />
</svg>
