<?xml version="1.0" encoding="UTF-8" standalone="no"?>
<!-- Created with Sodipodi ("http://www.sodipodi.com/") -->

<svg
   height="399"
   id="svg1"
   version="1.0"
   width="399"
   x="0"
   y="0"
   inkscape:version="1.1.2 (0a00cf5339, 2022-02-04)"
   sodipodi:docname="view-image.svg"
   inkscape:export-filename="/home/crep/git/matrix-viewer/icons/matrix-viewer/22x22/matrix-viewer.png"
   inkscape:export-xdpi="4.96"
   inkscape:export-ydpi="4.96"
   xmlns:inkscape="http://www.inkscape.org/namespaces/inkscape"
   xmlns:sodipodi="http://sodipodi.sourceforge.net/DTD/sodipodi-0.dtd"
   xmlns="http://www.w3.org/2000/svg"
   xmlns:svg="http://www.w3.org/2000/svg"
   xmlns:rdf="http://www.w3.org/1999/02/22-rdf-syntax-ns#"
   xmlns:cc="http://creativecommons.org/ns#"
   xmlns:dc="http://purl.org/dc/elements/1.1/">
  <sodipodi:namedview
     pagecolor="#ffffff"
     bordercolor="#666666"
     borderopacity="1"
     objecttolerance="10"
     gridtolerance="10"
     guidetolerance="10"
     inkscape:pageopacity="0"
     inkscape:pageshadow="2"
     inkscape:window-width="1920"
     inkscape:window-height="1007"
     id="namedview29"
     showgrid="false"
     fit-margin-top="0"
     fit-margin-left="0"
     fit-margin-right="0"
     fit-margin-bottom="0"
     inkscape:zoom="0.7628672"
     inkscape:cx="-7.8650649"
     inkscape:cy="384.73276"
     inkscape:window-x="0"
     inkscape:window-y="0"
     inkscape:window-maximized="1"
     inkscape:current-layer="svg1"
     inkscape:pagecheckerboard="0" />
  <defs
     id="defs3" />
  <metadata
     id="metadata27">
    <rdf:RDF>
      <cc:Work>
        <dc:format>image/svg+xml</dc:format>
        <dc:type
           rdf:resource="http://purl.org/dc/dcmitype/StillImage" />
        <cc:license
           rdf:resource="http://creativecommons.org/publicdomain/zero/1.0/" />
        <dc:publisher>
          <cc:Agent
             rdf:about="http://openclipart.org/">
            <dc:title>Open Clip Art Library</dc:title>
          </cc:Agent>
        </dc:publisher>
        <dc:title>math matrix</dc:title>
        <dc:date>2011-01-21T16:59:07</dc:date>
        <dc:description>Originally uploaded by Jose Hevia for OCAL 0.18</dc:description>
        <dc:source>http://openclipart.org/detail/108619/math-matrix-by-anonymous</dc:source>
        <dc:creator>
          <cc:Agent>
            <dc:title>Anonymous</dc:title>
          </cc:Agent>
        </dc:creator>
        <dc:subject>
          <rdf:Bag>
            <rdf:li>clip art</rdf:li>
            <rdf:li>clipart</rdf:li>
            <rdf:li>fix</rdf:li>
            <rdf:li>keyword</rdf:li>
            <rdf:li>librarians</rdf:li>
            <rdf:li>tag</rdf:li>
          </rdf:Bag>
        </dc:subject>
      </cc:Work>
      <cc:License
         rdf:about="http://creativecommons.org/licenses/publicdomain/">
        <cc:permits
           rdf:resource="http://creativecommons.org/ns#Reproduction" />
        <cc:permits
           rdf:resource="http://creativecommons.org/ns#Distribution" />
        <cc:permits
           rdf:resource="http://creativecommons.org/ns#DerivativeWorks" />
      </cc:License>
    </rdf:RDF>
  </metadata>
  <path
     d="m 133.48462,134.66258 q 0,16.86366 -11.80456,28.66822 -11.80456,11.80456 -28.66822,11.80456 -16.863657,0 -28.668216,-11.80456 -11.804563,-11.80456 -11.804563,-28.66822 0,-16.86366 11.804563,-28.66821 11.804559,-11.804563 28.668216,-11.804563 16.86366,0 28.66822,11.804563 11.80456,11.80455 11.80456,28.66821 z m 215.85485,80.94556 v 94.43648 H 52.539061 v -40.47278 l 67.454629,-67.45463 33.72732,33.72731 107.92741,-107.92741 z M 369.57585,67.207948 H 32.302673 q -2.740346,0 -4.742907,2.002564 -2.002559,2.002555 -2.002559,4.742896 V 330.28101 q 0,2.74035 2.002559,4.74291 2.002561,2.00256 4.742907,2.00256 H 369.57585 q 2.74035,0 4.74292,-2.00256 2.00255,-2.00256 2.00255,-4.74291 V 73.953408 q 0,-2.740341 -2.00255,-4.742896 -2.00257,-2.002564 -4.74292,-2.002564 z m 33.72731,6.74546 V 330.28101 q 0,13.91252 -9.90738,23.8199 -9.90743,9.90743 -23.81993,9.90743 H 32.302673 q -13.912521,0 -23.8199174,-9.90743 -9.9074016,-9.90738 -9.9074016,-23.8199 V 73.953408 q 0,-13.91251 9.9074016,-23.819915 9.9073964,-9.907397 23.8199174,-9.907397 H 369.57585 q 13.9125,0 23.81993,9.907397 9.90738,9.907405 9.90738,23.819915 z"
     fill="#4d4d4d"
     id="path911"
     style="stroke-width:0.210796;fill:#4e9a06" />
</svg>
